<svg xmlns="http://www.w3.org/2000/svg" viewBox="0 0 1200 420" width="1200" height="420" role="img" aria-label="Rohil Sagar — backend engineer. Dusk over a mountain with a pagoda and falling sakura petals.">
<defs>
  <linearGradient id="sky" x1="0" y1="0" x2="0" y2="1">
    <stop offset="0" stop-color="#21142f"/><stop offset=".35" stop-color="#553055"/><stop offset=".62" stop-color="#b86a7c"/><stop offset=".82" stop-color="#f1b39c"/><stop offset="1" stop-color="#f8d5b0"/>
  </linearGradient>
  <linearGradient id="water" x1="0" y1="0" x2="0" y2="1"><stop offset="0" stop-color="#6e3d5e"/><stop offset="1" stop-color="#1e1128"/></linearGradient>
  <radialGradient id="sunGlow"><stop offset="0" stop-color="#ffe3b8" stop-opacity=".9"/><stop offset=".5" stop-color="#ffc79a" stop-opacity=".25"/><stop offset="1" stop-color="#ffb08a" stop-opacity="0"/></radialGradient>
  <linearGradient id="fuji" x1="0" y1="0" x2="0" y2="1"><stop offset="0" stop-color="#7d4a70"/><stop offset="1" stop-color="#4b2a4c"/></linearGradient>
  <clipPath id="frame"><rect width="1200" height="420" rx="18"/></clipPath>
  
  <g id="blossom">
    <path d="M0,0 C-5,-6 -5.5,-13 -1.8,-16.5 L0,-14.5 L1.8,-16.5 C5.5,-13 5,-6 0,0Z" transform="rotate(0)" fill="url(#petalGrad)" stroke="#ec8fab" stroke-width=".6"/><path d="M0,0 C-5,-6 -5.5,-13 -1.8,-16.5 L0,-14.5 L1.8,-16.5 C5.5,-13 5,-6 0,0Z" transform="rotate(72)" fill="url(#petalGrad)" stroke="#ec8fab" stroke-width=".6"/><path d="M0,0 C-5,-6 -5.5,-13 -1.8,-16.5 L0,-14.5 L1.8,-16.5 C5.5,-13 5,-6 0,0Z" transform="rotate(144)" fill="url(#petalGrad)" stroke="#ec8fab" stroke-width=".6"/><path d="M0,0 C-5,-6 -5.5,-13 -1.8,-16.5 L0,-14.5 L1.8,-16.5 C5.5,-13 5,-6 0,0Z" transform="rotate(216)" fill="url(#petalGrad)" stroke="#ec8fab" stroke-width=".6"/><path d="M0,0 C-5,-6 -5.5,-13 -1.8,-16.5 L0,-14.5 L1.8,-16.5 C5.5,-13 5,-6 0,0Z" transform="rotate(288)" fill="url(#petalGrad)" stroke="#ec8fab" stroke-width=".6"/>
    <circle r="3.2" fill="#d4486f"/>
    <line x1="0" y1="0" x2="5.7" y2="1.9" stroke="#c23a63" stroke-width=".7"/><circle cx="6.3" cy="2.0" r=".9" fill="#ffe28a"/><line x1="0" y1="0" x2="3.5" y2="4.9" stroke="#c23a63" stroke-width=".7"/><circle cx="3.9" cy="5.3" r=".9" fill="#ffe28a"/><line x1="0" y1="0" x2="0.0" y2="6.0" stroke="#c23a63" stroke-width=".7"/><circle cx="0.0" cy="6.6" r=".9" fill="#ffe28a"/><line x1="0" y1="0" x2="-3.5" y2="4.9" stroke="#c23a63" stroke-width=".7"/><circle cx="-3.9" cy="5.3" r=".9" fill="#ffe28a"/><line x1="0" y1="0" x2="-5.7" y2="1.9" stroke="#c23a63" stroke-width=".7"/><circle cx="-6.3" cy="2.0" r=".9" fill="#ffe28a"/><line x1="0" y1="0" x2="-5.7" y2="-1.9" stroke="#c23a63" stroke-width=".7"/><circle cx="-6.3" cy="-2.0" r=".9" fill="#ffe28a"/><line x1="0" y1="0" x2="-3.5" y2="-4.9" stroke="#c23a63" stroke-width=".7"/><circle cx="-3.9" cy="-5.3" r=".9" fill="#ffe28a"/><line x1="0" y1="0" x2="-0.0" y2="-6.0" stroke="#c23a63" stroke-width=".7"/><circle cx="-0.0" cy="-6.6" r=".9" fill="#ffe28a"/><line x1="0" y1="0" x2="3.5" y2="-4.9" stroke="#c23a63" stroke-width=".7"/><circle cx="3.9" cy="-5.3" r=".9" fill="#ffe28a"/><line x1="0" y1="0" x2="5.7" y2="-1.9" stroke="#c23a63" stroke-width=".7"/><circle cx="6.3" cy="-2.0" r=".9" fill="#ffe28a"/>
  </g>
  <g id="bud"><ellipse rx="3.4" ry="5" fill="#f38aa8"/><path d="M-3,3 Q0,8 3,3" fill="#6b3b3f"/></g>
  <radialGradient id="petalGrad" cx="50%" cy="85%" r="80%">
    <stop offset="0" stop-color="#ff9fbb"/><stop offset=".45" stop-color="#ffd0dc"/><stop offset="1" stop-color="#fff1f4"/>
  </radialGradient>
</defs>
<style>
  @keyframes f0{0%{transform:translate(437px,-30px) rotate(187deg) scale(0.77);opacity:0}8%{opacity:.95}50%{transform:translate(368px,210px) rotate(387deg) scale(0.77,0.42)}92%{opacity:.9}100%{transform:translate(229px,450px) rotate(607deg) scale(0.77);opacity:0}}.p0{animation:f0 10.2s linear -6.6s infinite}
@keyframes f1{0%{transform:translate(78px,-30px) rotate(46deg) scale(0.53);opacity:0}8%{opacity:.95}50%{transform:translate(36px,210px) rotate(246deg) scale(0.53,0.29)}92%{opacity:.9}100%{transform:translate(-72px,450px) rotate(466deg) scale(0.53);opacity:0}}.p1{animation:f1 13.1s linear -0.5s infinite}
@keyframes f2{0%{transform:translate(573px,-30px) rotate(31deg) scale(0.81);opacity:0}8%{opacity:.95}50%{transform:translate(515px,210px) rotate(231deg) scale(0.81,0.45)}92%{opacity:.9}100%{transform:translate(389px,450px) rotate(451deg) scale(0.81);opacity:0}}.p2{animation:f2 15.6s linear -1.9s infinite}
@keyframes f3{0%{transform:translate(790px,-30px) rotate(214deg) scale(0.57);opacity:0}8%{opacity:.95}50%{transform:translate(757px,210px) rotate(414deg) scale(0.57,0.31)}92%{opacity:.9}100%{transform:translate(660px,450px) rotate(634deg) scale(0.57);opacity:0}}.p3{animation:f3 9.4s linear -2.1s infinite}
@keyframes f4{0%{transform:translate(730px,-30px) rotate(292deg) scale(0.55);opacity:0}8%{opacity:.95}50%{transform:translate(705px,210px) rotate(492deg) scale(0.55,0.30)}92%{opacity:.9}100%{transform:translate(619px,450px) rotate(712deg) scale(0.55);opacity:0}}.p4{animation:f4 13.6s linear -7.6s infinite}
@keyframes f5{0%{transform:translate(503px,-30px) rotate(348deg) scale(0.60);opacity:0}8%{opacity:.95}50%{transform:translate(433px,210px) rotate(548deg) scale(0.60,0.33)}92%{opacity:.9}100%{transform:translate(292px,450px) rotate(768deg) scale(0.60);opacity:0}}.p5{animation:f5 13.4s linear -0.8s infinite}
@keyframes f6{0%{transform:translate(577px,-30px) rotate(92deg) scale(0.65);opacity:0}8%{opacity:.95}50%{transform:translate(536px,210px) rotate(292deg) scale(0.65,0.36)}92%{opacity:.9}100%{transform:translate(430px,450px) rotate(512deg) scale(0.65);opacity:0}}.p6{animation:f6 11.5s linear -6.7s infinite}
@keyframes f7{0%{transform:translate(111px,-30px) rotate(311deg) scale(0.72);opacity:0}8%{opacity:.95}50%{transform:translate(61px,210px) rotate(511deg) scale(0.72,0.40)}92%{opacity:.9}100%{transform:translate(-55px,450px) rotate(731deg) scale(0.72);opacity:0}}.p7{animation:f7 11.4s linear -5.6s infinite}
@keyframes f8{0%{transform:translate(159px,-30px) rotate(20deg) scale(0.74);opacity:0}8%{opacity:.95}50%{transform:translate(96px,210px) rotate(220deg) scale(0.74,0.41)}92%{opacity:.9}100%{transform:translate(-36px,450px) rotate(440deg) scale(0.74);opacity:0}}.p8{animation:f8 12.3s linear -9.3s infinite}
@keyframes f9{0%{transform:translate(1032px,-30px) rotate(304deg) scale(0.85);opacity:0}8%{opacity:.95}50%{transform:translate(981px,210px) rotate(504deg) scale(0.85,0.47)}92%{opacity:.9}100%{transform:translate(862px,450px) rotate(724deg) scale(0.85);opacity:0}}.p9{animation:f9 13.6s linear -11.9s infinite}
@keyframes f10{0%{transform:translate(783px,-30px) rotate(340deg) scale(0.74);opacity:0}8%{opacity:.95}50%{transform:translate(777px,210px) rotate(540deg) scale(0.74,0.41)}92%{opacity:.9}100%{transform:translate(714px,450px) rotate(760deg) scale(0.74);opacity:0}}.p10{animation:f10 12.6s linear -10.6s infinite}
@keyframes f11{0%{transform:translate(82px,-30px) rotate(145deg) scale(0.91);opacity:0}8%{opacity:.95}50%{transform:translate(79px,210px) rotate(345deg) scale(0.91,0.50)}92%{opacity:.9}100%{transform:translate(21px,450px) rotate(565deg) scale(0.91);opacity:0}}.p11{animation:f11 14.6s linear -9.5s infinite}
@keyframes f12{0%{transform:translate(1198px,-30px) rotate(252deg) scale(0.81);opacity:0}8%{opacity:.95}50%{transform:translate(1149px,210px) rotate(452deg) scale(0.81,0.44)}92%{opacity:.9}100%{transform:translate(1034px,450px) rotate(672deg) scale(0.81);opacity:0}}.p12{animation:f12 11.8s linear -11.1s infinite}
@keyframes f13{0%{transform:translate(295px,-30px) rotate(254deg) scale(0.96);opacity:0}8%{opacity:.95}50%{transform:translate(249px,210px) rotate(454deg) scale(0.96,0.53)}92%{opacity:.9}100%{transform:translate(138px,450px) rotate(674deg) scale(0.96);opacity:0}}.p13{animation:f13 11.3s linear -8.3s infinite}
@keyframes f14{0%{transform:translate(225px,-30px) rotate(281deg) scale(0.72);opacity:0}8%{opacity:.95}50%{transform:translate(160px,210px) rotate(481deg) scale(0.72,0.39)}92%{opacity:.9}100%{transform:translate(27px,450px) rotate(701deg) scale(0.72);opacity:0}}.p14{animation:f14 12.2s linear -3.4s infinite}
@keyframes f15{0%{transform:translate(954px,-30px) rotate(42deg) scale(0.62);opacity:0}8%{opacity:.95}50%{transform:translate(907px,210px) rotate(242deg) scale(0.62,0.34)}92%{opacity:.9}100%{transform:translate(795px,450px) rotate(462deg) scale(0.62);opacity:0}}.p15{animation:f15 16.9s linear -11.5s infinite}
@keyframes f16{0%{transform:translate(204px,-30px) rotate(144deg) scale(0.59);opacity:0}8%{opacity:.95}50%{transform:translate(190px,210px) rotate(344deg) scale(0.59,0.33)}92%{opacity:.9}100%{transform:translate(117px,450px) rotate(564deg) scale(0.59);opacity:0}}.p16{animation:f16 14.3s linear -0.2s infinite}
@keyframes f17{0%{transform:translate(197px,-30px) rotate(263deg) scale(0.56);opacity:0}8%{opacity:.95}50%{transform:translate(146px,210px) rotate(463deg) scale(0.56,0.31)}92%{opacity:.9}100%{transform:translate(28px,450px) rotate(683deg) scale(0.56);opacity:0}}.p17{animation:f17 13.3s linear -8.1s infinite}
@keyframes f18{0%{transform:translate(884px,-30px) rotate(348deg) scale(0.98);opacity:0}8%{opacity:.95}50%{transform:translate(873px,210px) rotate(548deg) scale(0.98,0.54)}92%{opacity:.9}100%{transform:translate(804px,450px) rotate(768deg) scale(0.98);opacity:0}}.p18{animation:f18 14.9s linear -6.8s infinite}
@keyframes f19{0%{transform:translate(530px,-30px) rotate(34deg) scale(0.53);opacity:0}8%{opacity:.95}50%{transform:translate(501px,210px) rotate(234deg) scale(0.53,0.29)}92%{opacity:.9}100%{transform:translate(411px,450px) rotate(454deg) scale(0.53);opacity:0}}.p19{animation:f19 12.2s linear -1.3s infinite}
@keyframes f20{0%{transform:translate(595px,-30px) rotate(274deg) scale(0.78);opacity:0}8%{opacity:.95}50%{transform:translate(528px,210px) rotate(474deg) scale(0.78,0.43)}92%{opacity:.9}100%{transform:translate(391px,450px) rotate(694deg) scale(0.78);opacity:0}}.p20{animation:f20 9.9s linear -5.9s infinite}
@keyframes f21{0%{transform:translate(1281px,-30px) rotate(324deg) scale(0.69);opacity:0}8%{opacity:.95}50%{transform:translate(1222px,210px) rotate(524deg) scale(0.69,0.38)}92%{opacity:.9}100%{transform:translate(1094px,450px) rotate(744deg) scale(0.69);opacity:0}}.p21{animation:f21 13.9s linear -1.0s infinite}
@keyframes f22{0%{transform:translate(1290px,-30px) rotate(238deg) scale(0.74);opacity:0}8%{opacity:.95}50%{transform:translate(1224px,210px) rotate(438deg) scale(0.74,0.41)}92%{opacity:.9}100%{transform:translate(1088px,450px) rotate(658deg) scale(0.74);opacity:0}}.p22{animation:f22 13.8s linear -6.6s infinite}
@keyframes f23{0%{transform:translate(653px,-30px) rotate(354deg) scale(0.63);opacity:0}8%{opacity:.95}50%{transform:translate(604px,210px) rotate(554deg) scale(0.63,0.35)}92%{opacity:.9}100%{transform:translate(488px,450px) rotate(774deg) scale(0.63);opacity:0}}.p23{animation:f23 9.7s linear -1.0s infinite}
@keyframes f24{0%{transform:translate(697px,-30px) rotate(13deg) scale(0.85);opacity:0}8%{opacity:.95}50%{transform:translate(649px,210px) rotate(213deg) scale(0.85,0.46)}92%{opacity:.9}100%{transform:translate(535px,450px) rotate(433deg) scale(0.85);opacity:0}}.p24{animation:f24 10.6s linear -10.1s infinite}
@keyframes f25{0%{transform:translate(402px,-30px) rotate(85deg) scale(0.76);opacity:0}8%{opacity:.95}50%{transform:translate(389px,210px) rotate(285deg) scale(0.76,0.42)}92%{opacity:.9}100%{transform:translate(318px,450px) rotate(505deg) scale(0.76);opacity:0}}.p25{animation:f25 14.1s linear -1.3s infinite}
  .glow{animation:gl 4s ease-in-out infinite alternate}
  @keyframes gl{from{opacity:.35}to{opacity:.75}}
  .sh0{animation:sh 3.2s ease-in-out infinite alternate} .sh1{animation:sh 2.6s ease-in-out -1s infinite alternate} .sh2{animation:sh 3.8s ease-in-out -2s infinite alternate}
  @keyframes sh{from{opacity:.15;transform:translateX(-6px)}to{opacity:.7;transform:translateX(6px)}}
  .cl0{animation:cl 40s ease-in-out infinite alternate} .cl1{animation:cl 55s ease-in-out -20s infinite alternate}
  @keyframes cl{from{transform:translateX(-30px)}to{transform:translateX(40px)}}
  .sway{transform-origin:0 0;animation:sw 7s ease-in-out infinite alternate}
  .swayR{transform-origin:1200px 0;animation:sw 8s ease-in-out -3s infinite alternate}
  @keyframes sw{from{transform:rotate(-.6deg)}to{transform:rotate(.7deg)}}
  .rise{animation:rs 1.6s ease-out both} @keyframes rs{from{opacity:0;transform:translateY(10px)}to{opacity:1;transform:none}}
</style>
<g clip-path="url(#frame)">
  <rect width="1200" height="420" fill="url(#sky)"/>
  <circle cx="941" cy="99" r="0.6" fill="#fff" opacity="0.57"/><circle cx="792" cy="20" r="1.3" fill="#fff" opacity="0.69"/><circle cx="264" cy="105" r="0.9" fill="#fff" opacity="0.47"/><circle cx="1188" cy="92" r="0.6" fill="#fff" opacity="0.44"/><circle cx="619" cy="41" r="0.7" fill="#fff" opacity="0.39"/><circle cx="867" cy="7" r="1.0" fill="#fff" opacity="0.45"/><circle cx="22" cy="40" r="1.1" fill="#fff" opacity="0.48"/><circle cx="77" cy="108" r="1.2" fill="#fff" opacity="0.69"/><circle cx="126" cy="33" r="0.5" fill="#fff" opacity="0.60"/><circle cx="325" cy="19" r="0.9" fill="#fff" opacity="0.66"/><circle cx="983" cy="32" r="0.6" fill="#fff" opacity="0.66"/><circle cx="685" cy="79" r="0.6" fill="#fff" opacity="0.28"/><circle cx="826" cy="50" r="0.6" fill="#fff" opacity="0.67"/><circle cx="761" cy="89" r="0.6" fill="#fff" opacity="0.64"/><circle cx="80" cy="96" r="0.9" fill="#fff" opacity="0.40"/><circle cx="664" cy="102" r="0.7" fill="#fff" opacity="0.31"/><circle cx="632" cy="30" r="0.6" fill="#fff" opacity="0.32"/><circle cx="60" cy="26" r="0.8" fill="#fff" opacity="0.39"/><circle cx="911" cy="35" r="1.0" fill="#fff" opacity="0.33"/><circle cx="416" cy="7" r="0.7" fill="#fff" opacity="0.26"/><circle cx="880" cy="63" r="0.7" fill="#fff" opacity="0.46"/><circle cx="1122" cy="16" r="1.2" fill="#fff" opacity="0.44"/><circle cx="594" cy="93" r="0.9" fill="#fff" opacity="0.48"/><circle cx="825" cy="108" r="0.8" fill="#fff" opacity="0.62"/><circle cx="848" cy="72" r="0.9" fill="#fff" opacity="0.41"/><circle cx="65" cy="19" r="0.6" fill="#fff" opacity="0.58"/><circle cx="307" cy="22" r="0.6" fill="#fff" opacity="0.63"/><circle cx="1045" cy="75" r="0.8" fill="#fff" opacity="0.36"/><circle cx="352" cy="53" r="0.6" fill="#fff" opacity="0.45"/><circle cx="316" cy="106" r="1.4" fill="#fff" opacity="0.50"/><circle cx="293" cy="106" r="0.8" fill="#fff" opacity="0.41"/><circle cx="1" cy="45" r="0.9" fill="#fff" opacity="0.48"/><circle cx="241" cy="58" r="0.5" fill="#fff" opacity="0.37"/><circle cx="108" cy="47" r="0.5" fill="#fff" opacity="0.26"/><circle cx="365" cy="29" r="1.0" fill="#fff" opacity="0.49"/><circle cx="901" cy="74" r="1.1" fill="#fff" opacity="0.65"/><circle cx="467" cy="39" r="1.4" fill="#fff" opacity="0.32"/><circle cx="869" cy="73" r="0.5" fill="#fff" opacity="0.63"/><circle cx="1070" cy="71" r="1.2" fill="#fff" opacity="0.62"/><circle cx="167" cy="60" r="1.0" fill="#fff" opacity="0.63"/>
  <circle cx="700" cy="160" r="170" fill="url(#sunGlow)"/>
  <circle cx="700" cy="160" r="64" fill="#ffdcae"/>
  <rect class="cl0" x="420" y="118" width="190" height="7" rx="3.5" fill="#ffd6cf" opacity="0.28"/><rect class="cl1" x="470" y="130" width="120" height="7" rx="3.5" fill="#ffd6cf" opacity="0.22"/><rect class="cl0" x="860" y="96" width="210" height="7" rx="3.5" fill="#ffd6cf" opacity="0.25"/><rect class="cl1" x="900" y="108" width="130" height="7" rx="3.5" fill="#ffd6cf" opacity="0.2"/><rect class="cl0" x="560" y="250" width="160" height="7" rx="3.5" fill="#ffd6cf" opacity="0.18"/>
  <path d="M0,300 C120,262 210,280 320,258 C420,238 500,276 600,268 L1200,272 L1200,420 L0,420Z" fill="#8f5876" opacity=".55"/>
  <path d="M450,352 L618,224 Q700,160 782,224 L960,352Z" fill="url(#fuji)"/>
  <path d="M600,238 L618,224 Q700,160 782,224 L800,238 L784,233 L766,248 L748,231 L728,249 L708,232 L690,250 L672,232 L652,249 L634,233 L616,246Z" fill="#fbe7ea"/>
  <path d="M0,338 C140,312 260,326 380,334 C520,344 640,336 760,338 C880,340 960,300 1060,296 C1130,294 1170,312 1200,318 L1200,420 L0,420Z" fill="#3a2038"/>
  <circle cx="42" cy="329" r="15" fill="#b86d8e"/><circle cx="38" cy="320" r="13" fill="#b86d8e"/><circle cx="22" cy="316" r="9" fill="#b86d8e"/><circle cx="19" cy="320" r="14" fill="#b86d8e"/><circle cx="46" cy="323" r="16" fill="#b86d8e"/><circle cx="48" cy="331" r="12" fill="#b86d8e"/><circle cx="17" cy="320" r="10" fill="#b86d8e"/><rect x="26.5" y="326" width="3" height="18" fill="#2a1830"/><circle cx="492" cy="340" r="11" fill="#a55f80"/><circle cx="510" cy="338" r="9" fill="#a55f80"/><circle cx="508" cy="334" r="10" fill="#a55f80"/><circle cx="511" cy="342" r="10" fill="#a55f80"/><circle cx="499" cy="335" r="10" fill="#a55f80"/><circle cx="495" cy="342" r="11" fill="#a55f80"/><circle cx="497" cy="337" r="11" fill="#a55f80"/><rect x="498.5" y="340" width="3" height="13" fill="#2a1830"/><circle cx="1099" cy="311" r="10" fill="#b86d8e"/><circle cx="1076" cy="322" r="15" fill="#b86d8e"/><circle cx="1076" cy="321" r="16" fill="#b86d8e"/><circle cx="1096" cy="314" r="13" fill="#b86d8e"/><circle cx="1075" cy="308" r="16" fill="#b86d8e"/><circle cx="1096" cy="316" r="16" fill="#b86d8e"/><circle cx="1087" cy="322" r="15" fill="#b86d8e"/><rect x="1088.5" y="318" width="3" height="18" fill="#2a1830"/><circle cx="1136" cy="319" r="13" fill="#a55f80"/><circle cx="1138" cy="325" r="13" fill="#a55f80"/><circle cx="1146" cy="317" r="18" fill="#a55f80"/><circle cx="1143" cy="323" r="16" fill="#a55f80"/><circle cx="1169" cy="322" r="19" fill="#a55f80"/><circle cx="1150" cy="324" r="15" fill="#a55f80"/><circle cx="1127" cy="322" r="12" fill="#a55f80"/><rect x="1148.5" y="326" width="3" height="22" fill="#2a1830"/><circle cx="866" cy="330" r="7" fill="#9c5577"/><circle cx="879" cy="329" r="9" fill="#9c5577"/><circle cx="875" cy="327" r="9" fill="#9c5577"/><circle cx="888" cy="322" r="9" fill="#9c5577"/><circle cx="873" cy="324" r="10" fill="#9c5577"/><circle cx="880" cy="327" r="10" fill="#9c5577"/><circle cx="892" cy="326" r="9" fill="#9c5577"/><rect x="878.5" y="328" width="3" height="13" fill="#2a1830"/><circle cx="560" cy="343" r="8" fill="#9c5577"/><circle cx="559" cy="343" r="7" fill="#9c5577"/><circle cx="570" cy="345" r="8" fill="#9c5577"/><circle cx="570" cy="341" r="7" fill="#9c5577"/><circle cx="570" cy="346" r="5" fill="#9c5577"/><circle cx="552" cy="342" r="5" fill="#9c5577"/><circle cx="554" cy="339" r="8" fill="#9c5577"/><rect x="558.5" y="344" width="3" height="10" fill="#2a1830"/>
  <rect x="975.9" y="304" width="68.2" height="10" fill="#241428"/>
<rect x="994.5" y="282.0" width="31.0" height="30" fill="#2a1830"/>
<rect x="1004.4" y="290.4" width="11.2" height="11.4" fill="#ffb86b" opacity=".55" class="glow"/>
<path d="M948.0,288.0 Q971.6,283.0 986.4,274.0 L1033.6,274.0 Q1048.4,283.0 1072.0,288.0 Q1010.0,282.0 948.0,288.0Z" fill="#1d1022"/>
<rect x="996.2" y="244.0" width="27.6" height="30" fill="#2a1830"/>
<rect x="1005.0" y="252.4" width="9.9" height="11.4" fill="#ffb86b" opacity=".55" class="glow"/>
<path d="M954.8,250.0 Q975.8,245.0 989.0,236.0 L1031.0,236.0 Q1044.2,245.0 1065.2,250.0 Q1010.0,244.0 954.8,250.0Z" fill="#1d1022"/>
<rect x="997.9" y="206.0" width="24.2" height="30" fill="#2a1830"/>
<rect x="1005.6" y="214.4" width="8.7" height="11.4" fill="#ffb86b" opacity=".55" class="glow"/>
<path d="M961.6,212.0 Q980.0,207.0 991.6,198.0 L1028.4,198.0 Q1040.0,207.0 1058.4,212.0 Q1010.0,206.0 961.6,212.0Z" fill="#1d1022"/>
<rect x="999.6" y="168.0" width="20.8" height="30" fill="#2a1830"/>
<rect x="1006.3" y="176.4" width="7.5" height="11.4" fill="#ffb86b" opacity=".55" class="glow"/>
<path d="M968.5,174.0 Q984.2,169.0 994.2,160.0 L1025.8,160.0 Q1035.8,169.0 1051.5,174.0 Q1010.0,168.0 968.5,174.0Z" fill="#1d1022"/>
<rect x="1001.3" y="130.0" width="17.4" height="30" fill="#2a1830"/>
<rect x="1006.9" y="138.4" width="6.2" height="11.4" fill="#ffb86b" opacity=".55" class="glow"/>
<path d="M975.3,136.0 Q988.5,131.0 996.8,122.0 L1023.2,122.0 Q1031.5,131.0 1044.7,136.0 Q1010.0,130.0 975.3,136.0Z" fill="#1d1022"/>
<line x1="1010" y1="122" x2="1010" y2="88" stroke="#1d1022" stroke-width="2.5"/>
<ellipse cx="1010" cy="116" rx="4.0" ry="1.2" fill="#1d1022"/>
<ellipse cx="1010" cy="111" rx="3.6" ry="1.2" fill="#1d1022"/>
<ellipse cx="1010" cy="106" rx="3.2" ry="1.2" fill="#1d1022"/>
<ellipse cx="1010" cy="101" rx="2.8" ry="1.2" fill="#1d1022"/>
<ellipse cx="1010" cy="96" rx="2.4" ry="1.2" fill="#1d1022"/>
  <rect y="352" width="1200" height="68" fill="url(#water)"/>
  <path d="M450,352 L618,420 L782,420 L960,352Z" fill="#4b2a4c" opacity=".35"/>
  <rect class="sh0" x="645" y="362" width="120" height="2.2" rx="1.1" fill="#ffd9a8"/><rect class="sh1" x="653" y="370" width="96" height="2.2" rx="1.1" fill="#ffd9a8"/><rect class="sh2" x="651" y="378" width="110" height="2.2" rx="1.1" fill="#ffd9a8"/><rect class="sh0" x="662" y="386" width="70" height="2.2" rx="1.1" fill="#ffd9a8"/><rect class="sh1" x="652" y="394" width="84" height="2.2" rx="1.1" fill="#ffd9a8"/><rect class="sh2" x="683" y="402" width="46" height="2.2" rx="1.1" fill="#ffd9a8"/><rect class="sh0" x="681" y="410" width="58" height="2.2" rx="1.1" fill="#ffd9a8"/>
  <rect y="351" width="1200" height="1.5" fill="#ffd9c4" opacity=".35"/>

  <g class="sway"><path d="M-20,8 C60,30 120,34 190,58 C250,78 300,74 360,96" fill="none" stroke="#2c1620" stroke-width="9" stroke-linecap="round"/>
<path d="M-20,8 C60,30 120,34 190,58 C250,78 300,74 360,96" fill="none" stroke="#5a2f3c" stroke-width="3.1" stroke-linecap="round" opacity=".6" transform="translate(0,-1)"/>
<path d="M190,58 C210,20 240,8 280,-6" fill="none" stroke="#2c1620" stroke-width="5" stroke-linecap="round"/>
<path d="M190,58 C210,20 240,8 280,-6" fill="none" stroke="#5a2f3c" stroke-width="1.8" stroke-linecap="round" opacity=".6" transform="translate(0,-1)"/>
<path d="M120,36 C140,70 150,98 176,126" fill="none" stroke="#2c1620" stroke-width="4.5" stroke-linecap="round"/>
<path d="M120,36 C140,70 150,98 176,126" fill="none" stroke="#5a2f3c" stroke-width="1.6" stroke-linecap="round" opacity=".6" transform="translate(0,-1)"/>
<path d="M300,78 C320,110 312,138 330,160" fill="none" stroke="#2c1620" stroke-width="3.5" stroke-linecap="round"/>
<path d="M300,78 C320,110 312,138 330,160" fill="none" stroke="#5a2f3c" stroke-width="1.2" stroke-linecap="round" opacity=".6" transform="translate(0,-1)"/>
<path d="M60,24 C58,50 70,72 64,96" fill="none" stroke="#2c1620" stroke-width="3.5" stroke-linecap="round"/>
<path d="M60,24 C58,50 70,72 64,96" fill="none" stroke="#5a2f3c" stroke-width="1.2" stroke-linecap="round" opacity=".6" transform="translate(0,-1)"/>
<path d="M250,72 C280,56 312,40 356,40" fill="none" stroke="#2c1620" stroke-width="3" stroke-linecap="round"/>
<path d="M250,72 C280,56 312,40 356,40" fill="none" stroke="#5a2f3c" stroke-width="1.0" stroke-linecap="round" opacity=".6" transform="translate(0,-1)"/><use href="#blossom" transform="translate(200,68) rotate(29) scale(0.75)"/>
<use href="#blossom" transform="translate(175,62) rotate(48) scale(1.16)"/>
<use href="#blossom" transform="translate(192,62) rotate(31) scale(0.97)"/>
<use href="#blossom" transform="translate(264,8) rotate(64) scale(1.19)"/>
<use href="#blossom" transform="translate(267,-1) rotate(60) scale(0.84)"/>
<use href="#blossom" transform="translate(266,-10) rotate(26) scale(0.83)"/>
<use href="#blossom" transform="translate(181,125) rotate(9) scale(0.96)"/>
<use href="#blossom" transform="translate(182,135) rotate(25) scale(0.74)"/>
<use href="#blossom" transform="translate(165,118) rotate(38) scale(1.04)"/>
<use href="#blossom" transform="translate(318,159) rotate(12) scale(1.08)"/>
<use href="#blossom" transform="translate(336,153) rotate(59) scale(0.96)"/>
<use href="#blossom" transform="translate(339,176) rotate(39) scale(1.24)"/>
<use href="#blossom" transform="translate(78,81) rotate(64) scale(1.23)"/>
<use href="#blossom" transform="translate(62,89) rotate(26) scale(0.74)"/>
<use href="#blossom" transform="translate(51,104) rotate(46) scale(0.77)"/>
<use href="#blossom" transform="translate(366,40) rotate(46) scale(0.83)"/>
<use href="#bud" transform="translate(369,40) rotate(-60)"/>
<use href="#blossom" transform="translate(370,46) rotate(18) scale(0.93)"/>
<use href="#blossom" transform="translate(356,84) rotate(41) scale(1.11)"/>
<use href="#blossom" transform="translate(371,84) rotate(1) scale(1.20)"/>
<use href="#blossom" transform="translate(353,92) rotate(9) scale(0.90)"/>
<use href="#bud" transform="translate(118,29) rotate(-47)"/>
<use href="#blossom" transform="translate(106,41) rotate(19) scale(0.84)"/>
<use href="#blossom" transform="translate(113,36) rotate(47) scale(1.13)"/>
<use href="#blossom" transform="translate(238,55) rotate(51) scale(1.20)"/>
<use href="#blossom" transform="translate(254,72) rotate(6) scale(1.21)"/>
<use href="#bud" transform="translate(237,74) rotate(51)"/>
<use href="#blossom" transform="translate(143,78) rotate(16) scale(0.79)"/>
<use href="#blossom" transform="translate(147,85) rotate(33) scale(0.92)"/>
<use href="#blossom" transform="translate(142,91) rotate(15) scale(0.79)"/>
<use href="#blossom" transform="translate(299,119) rotate(63) scale(1.00)"/>
<use href="#blossom" transform="translate(308,123) rotate(54) scale(0.78)"/>
<use href="#blossom" transform="translate(300,115) rotate(11) scale(0.88)"/>
<use href="#blossom" transform="translate(56,68) rotate(2) scale(1.11)"/>
<use href="#blossom" transform="translate(57,55) rotate(48) scale(0.85)"/>
<use href="#blossom" transform="translate(68,58) rotate(46) scale(0.77)"/>
<use href="#blossom" transform="translate(230,24) rotate(27) scale(0.75)"/>
<use href="#blossom" transform="translate(243,16) rotate(55) scale(1.22)"/>
<use href="#bud" transform="translate(241,32) rotate(-56)"/>
<use href="#blossom" transform="translate(98,38) rotate(62) scale(0.70)"/>
<use href="#blossom" transform="translate(97,44) rotate(59) scale(1.23)"/>
<use href="#bud" transform="translate(92,17) rotate(6)"/></g>
  <g class="swayR"><path d="M1225,24 C1180,34 1150,30 1110,48" fill="none" stroke="#2c1620" stroke-width="6" stroke-linecap="round"/>
<path d="M1225,24 C1180,34 1150,30 1110,48" fill="none" stroke="#5a2f3c" stroke-width="2.1" stroke-linecap="round" opacity=".6" transform="translate(0,-1)"/>
<path d="M1150,32 C1140,56 1126,70 1104,84" fill="none" stroke="#2c1620" stroke-width="3.5" stroke-linecap="round"/>
<path d="M1150,32 C1140,56 1126,70 1104,84" fill="none" stroke="#5a2f3c" stroke-width="1.2" stroke-linecap="round" opacity=".6" transform="translate(0,-1)"/><use href="#blossom" transform="translate(1125,35) rotate(58) scale(0.75)"/>
<use href="#bud" transform="translate(1119,32) rotate(12)"/>
<use href="#blossom" transform="translate(1117,89) rotate(16) scale(1.04)"/>
<use href="#blossom" transform="translate(1105,82) rotate(12) scale(0.74)"/>
<use href="#blossom" transform="translate(1161,33) rotate(28) scale(1.13)"/>
<use href="#blossom" transform="translate(1144,31) rotate(35) scale(1.23)"/>
<use href="#blossom" transform="translate(1140,74) rotate(30) scale(1.00)"/>
<use href="#blossom" transform="translate(1120,59) rotate(7) scale(0.71)"/>
<use href="#blossom" transform="translate(1190,36) rotate(32) scale(0.83)"/>
<use href="#blossom" transform="translate(1188,26) rotate(43) scale(1.10)"/></g>

  <g class="rise">
    <text x="86" y="184" font-family="'Hiragino Mincho ProN','Yu Mincho','Noto Serif JP','Noto Serif CJK JP',Georgia,serif" font-size="20" letter-spacing="9" fill="#ffc6d4">ロヒル・サガル</text>
    <text x="84" y="254" font-family="'Hiragino Mincho ProN','Yu Mincho','Noto Serif JP','Noto Serif CJK JP',Georgia,serif" font-size="66" font-weight="600" fill="#fff5f1">Rohil Sagar</text>
    <rect x="88" y="291" width="46" height="2" fill="#ff9fbb"/>
    <text x="146" y="297" font-family="'Hiragino Mincho ProN','Yu Mincho','Noto Serif JP','Noto Serif CJK JP',Georgia,serif" font-size="19" letter-spacing="1.5" fill="#fbe2e7">backend engineer · Dubai</text>
    <text x="88" y="326" font-family="'Hiragino Mincho ProN','Yu Mincho','Noto Serif JP','Noto Serif CJK JP',Georgia,serif" font-size="15.5" font-style="italic" fill="#f6cfd8" opacity=".9">I build the part you don&#8217;t see, and keep it running.</text>
  </g>

  <text x="1158" y="162" font-family="'Hiragino Mincho ProN','Yu Mincho','Noto Serif JP','Noto Serif CJK JP',Georgia,serif" font-size="26" fill="#fff0f3" opacity=".9" text-anchor="middle">一</text><text x="1158" y="196" font-family="'Hiragino Mincho ProN','Yu Mincho','Noto Serif JP','Noto Serif CJK JP',Georgia,serif" font-size="26" fill="#fff0f3" opacity=".9" text-anchor="middle">期</text><text x="1158" y="230" font-family="'Hiragino Mincho ProN','Yu Mincho','Noto Serif JP','Noto Serif CJK JP',Georgia,serif" font-size="26" fill="#fff0f3" opacity=".9" text-anchor="middle">一</text><text x="1158" y="264" font-family="'Hiragino Mincho ProN','Yu Mincho','Noto Serif JP','Noto Serif CJK JP',Georgia,serif" font-size="26" fill="#fff0f3" opacity=".9" text-anchor="middle">会</text>
  <g transform="translate(1140,308) rotate(-3)">
    <rect width="36" height="36" rx="4" fill="#c8323f"/>
    <rect x="3" y="3" width="30" height="30" rx="2" fill="none" stroke="#ffe6e0" stroke-width="1.2" opacity=".8"/>
    <text x="18" y="27" font-family="'Hiragino Mincho ProN','Yu Mincho','Noto Serif JP','Noto Serif CJK JP',Georgia,serif" font-size="22" font-weight="700" fill="#fff1ec" text-anchor="middle">路</text>
  </g>

  <path class="p0" d="M0,0 C-5,-6 -5.5,-13 -1.8,-16.5 L0,-14.5 L1.8,-16.5 C5.5,-13 5,-6 0,0Z" fill="#f7a1b8" opacity=".9"/>
<path class="p1" d="M0,0 C-5,-6 -5.5,-13 -1.8,-16.5 L0,-14.5 L1.8,-16.5 C5.5,-13 5,-6 0,0Z" fill="#f7a1b8" opacity=".9"/>
<path class="p2" d="M0,0 C-5,-6 -5.5,-13 -1.8,-16.5 L0,-14.5 L1.8,-16.5 C5.5,-13 5,-6 0,0Z" fill="#f7a1b8" opacity=".9"/>
<path class="p3" d="M0,0 C-5,-6 -5.5,-13 -1.8,-16.5 L0,-14.5 L1.8,-16.5 C5.5,-13 5,-6 0,0Z" fill="#ffc2d1" opacity=".9"/>
<path class="p4" d="M0,0 C-5,-6 -5.5,-13 -1.8,-16.5 L0,-14.5 L1.8,-16.5 C5.5,-13 5,-6 0,0Z" fill="#ffc2d1" opacity=".9"/>
<path class="p5" d="M0,0 C-5,-6 -5.5,-13 -1.8,-16.5 L0,-14.5 L1.8,-16.5 C5.5,-13 5,-6 0,0Z" fill="#f7a1b8" opacity=".9"/>
<path class="p6" d="M0,0 C-5,-6 -5.5,-13 -1.8,-16.5 L0,-14.5 L1.8,-16.5 C5.5,-13 5,-6 0,0Z" fill="#ffc2d1" opacity=".9"/>
<path class="p7" d="M0,0 C-5,-6 -5.5,-13 -1.8,-16.5 L0,-14.5 L1.8,-16.5 C5.5,-13 5,-6 0,0Z" fill="#ffd3de" opacity=".9"/>
<path class="p8" d="M0,0 C-5,-6 -5.5,-13 -1.8,-16.5 L0,-14.5 L1.8,-16.5 C5.5,-13 5,-6 0,0Z" fill="#ffd3de" opacity=".9"/>
<path class="p9" d="M0,0 C-5,-6 -5.5,-13 -1.8,-16.5 L0,-14.5 L1.8,-16.5 C5.5,-13 5,-6 0,0Z" fill="#ffe4ea" opacity=".9"/>
<path class="p10" d="M0,0 C-5,-6 -5.5,-13 -1.8,-16.5 L0,-14.5 L1.8,-16.5 C5.5,-13 5,-6 0,0Z" fill="#ffd3de" opacity=".9"/>
<path class="p11" d="M0,0 C-5,-6 -5.5,-13 -1.8,-16.5 L0,-14.5 L1.8,-16.5 C5.5,-13 5,-6 0,0Z" fill="#ffe4ea" opacity=".9"/>
<path class="p12" d="M0,0 C-5,-6 -5.5,-13 -1.8,-16.5 L0,-14.5 L1.8,-16.5 C5.5,-13 5,-6 0,0Z" fill="#ffd3de" opacity=".9"/>
<path class="p13" d="M0,0 C-5,-6 -5.5,-13 -1.8,-16.5 L0,-14.5 L1.8,-16.5 C5.5,-13 5,-6 0,0Z" fill="#ffd3de" opacity=".9"/>
<path class="p14" d="M0,0 C-5,-6 -5.5,-13 -1.8,-16.5 L0,-14.5 L1.8,-16.5 C5.5,-13 5,-6 0,0Z" fill="#f9aec3" opacity=".9"/>
<path class="p15" d="M0,0 C-5,-6 -5.5,-13 -1.8,-16.5 L0,-14.5 L1.8,-16.5 C5.5,-13 5,-6 0,0Z" fill="#ffc2d1" opacity=".9"/>
<path class="p16" d="M0,0 C-5,-6 -5.5,-13 -1.8,-16.5 L0,-14.5 L1.8,-16.5 C5.5,-13 5,-6 0,0Z" fill="#ffd3de" opacity=".9"/>
<path class="p17" d="M0,0 C-5,-6 -5.5,-13 -1.8,-16.5 L0,-14.5 L1.8,-16.5 C5.5,-13 5,-6 0,0Z" fill="#f7a1b8" opacity=".9"/>
<path class="p18" d="M0,0 C-5,-6 -5.5,-13 -1.8,-16.5 L0,-14.5 L1.8,-16.5 C5.5,-13 5,-6 0,0Z" fill="#f7a1b8" opacity=".9"/>
<path class="p19" d="M0,0 C-5,-6 -5.5,-13 -1.8,-16.5 L0,-14.5 L1.8,-16.5 C5.5,-13 5,-6 0,0Z" fill="#ffc2d1" opacity=".9"/>
<path class="p20" d="M0,0 C-5,-6 -5.5,-13 -1.8,-16.5 L0,-14.5 L1.8,-16.5 C5.5,-13 5,-6 0,0Z" fill="#ffd3de" opacity=".9"/>
<path class="p21" d="M0,0 C-5,-6 -5.5,-13 -1.8,-16.5 L0,-14.5 L1.8,-16.5 C5.5,-13 5,-6 0,0Z" fill="#f9aec3" opacity=".9"/>
<path class="p22" d="M0,0 C-5,-6 -5.5,-13 -1.8,-16.5 L0,-14.5 L1.8,-16.5 C5.5,-13 5,-6 0,0Z" fill="#ffe4ea" opacity=".9"/>
<path class="p23" d="M0,0 C-5,-6 -5.5,-13 -1.8,-16.5 L0,-14.5 L1.8,-16.5 C5.5,-13 5,-6 0,0Z" fill="#ffc2d1" opacity=".9"/>
<path class="p24" d="M0,0 C-5,-6 -5.5,-13 -1.8,-16.5 L0,-14.5 L1.8,-16.5 C5.5,-13 5,-6 0,0Z" fill="#f7a1b8" opacity=".9"/>
<path class="p25" d="M0,0 C-5,-6 -5.5,-13 -1.8,-16.5 L0,-14.5 L1.8,-16.5 C5.5,-13 5,-6 0,0Z" fill="#f9aec3" opacity=".9"/>
</g>
</svg>